<?xml version="1.0" encoding="UTF-8"?>
<svg id="Layer_2" data-name="Layer 2" xmlns="http://www.w3.org/2000/svg" viewBox="0 0 1206.65 304.98">
  <defs>
    <style>
      .cls-1 {
        fill: #000;
      }

      .cls-1, .cls-2 {
        stroke-width: 0px;
      }

      .cls-2 {
        fill: #fff;
      }
    </style>
  </defs>
  <g id="Layer_1-2" data-name="Layer 1">
    <g>
      <rect class="cls-1" width="1206.65" height="304.98"/>
      <g>
        <g>
          <path class="cls-2" d="M424.42,161.9c0-15.55,12-26.59,28.42-26.59s28.32,11.04,28.32,26.59-11.9,26.59-28.32,26.59-28.42-11.04-28.42-26.59ZM465.99,161.9c0-8.93-5.66-14.3-13.15-14.3s-13.25,5.38-13.25,14.3,5.76,14.3,13.25,14.3,13.15-5.38,13.15-14.3Z"/>
          <path class="cls-2" d="M545.64,161.9c0,16.22-11.23,26.59-25.73,26.59-6.91,0-12.48-2.21-16.22-6.72v5.95h-14.3v-71.23h14.98v25.06c3.84-4.22,9.12-6.24,15.55-6.24,14.5,0,25.73,10.37,25.73,26.59ZM530.47,161.9c0-8.93-5.66-14.3-13.15-14.3s-13.15,5.38-13.15,14.3,5.66,14.3,13.15,14.3,13.15-5.38,13.15-14.3Z"/>
          <path class="cls-2" d="M549.46,182.92l4.99-10.75c4.61,2.98,11.62,4.99,17.95,4.99,6.91,0,9.5-1.82,9.5-4.7,0-8.45-31.2.19-31.2-20.45,0-9.79,8.83-16.7,23.9-16.7,7.1,0,14.98,1.63,19.87,4.51l-4.99,10.66c-5.09-2.88-10.18-3.84-14.88-3.84-6.72,0-9.6,2.11-9.6,4.8,0,8.83,31.2.29,31.2,20.64,0,9.6-8.93,16.42-24.38,16.42-8.74,0-17.57-2.4-22.37-5.57Z"/>
          <path class="cls-2" d="M600.34,161.9c0-15.55,12-26.59,28.8-26.59,10.85,0,19.39,4.7,23.14,13.15l-11.62,6.24c-2.78-4.9-6.91-7.1-11.62-7.1-7.58,0-13.54,5.28-13.54,14.3s5.95,14.3,13.54,14.3c4.7,0,8.83-2.11,11.62-7.1l11.62,6.34c-3.74,8.26-12.29,13.06-23.14,13.06-16.8,0-28.8-11.04-28.8-26.59Z"/>
          <path class="cls-2" d="M710.75,136.07v51.65h-14.21v-6.14c-3.94,4.51-9.7,6.91-16.03,6.91-12.96,0-22.08-7.3-22.08-23.23v-29.18h14.98v26.98c0,8.64,3.84,12.48,10.46,12.48s11.9-4.42,11.9-13.92v-25.54h14.98Z"/>
          <path class="cls-2" d="M766.74,187.72l-12.96-18.72h-14.3v18.72h-15.55v-67.2h29.09c17.95,0,29.18,9.31,29.18,24.38,0,10.08-5.09,17.47-13.82,21.22l15.07,21.6h-16.7ZM752.15,133.19h-12.67v23.42h12.67c9.5,0,14.3-4.42,14.3-11.71s-4.8-11.71-14.3-11.71Z"/>
          <path class="cls-2" d="M836.11,187.72l-12.96-18.72h-14.3v18.72h-15.55v-67.2h29.09c17.95,0,29.18,9.31,29.18,24.38,0,10.08-5.09,17.47-13.82,21.22l15.07,21.6h-16.7ZM821.52,133.19h-12.67v23.42h12.67c9.5,0,14.3-4.42,14.3-11.71s-4.8-11.71-14.3-11.71Z"/>
          <path class="cls-2" d="M905.49,187.72l-12.96-18.72h-14.3v18.72h-15.55v-67.2h29.09c17.95,0,29.18,9.31,29.18,24.38,0,10.08-5.09,17.47-13.82,21.22l15.07,21.6h-16.7ZM890.89,133.19h-12.67v23.42h12.67c9.5,0,14.3-4.42,14.3-11.71s-4.8-11.71-14.3-11.71Z"/>
          <path class="cls-2" d="M976.21,158.25v29.47h-14.02v-6.43c-2.78,4.7-8.16,7.2-15.74,7.2-12.1,0-19.3-6.72-19.3-15.65s6.43-15.46,22.18-15.46h11.9c0-6.43-3.84-10.18-11.9-10.18-5.47,0-11.14,1.82-14.88,4.8l-5.38-10.46c5.66-4.03,14.02-6.24,22.27-6.24,15.74,0,24.86,7.3,24.86,22.94ZM961.24,171.4v-5.28h-10.27c-7.01,0-9.22,2.59-9.22,6.05,0,3.74,3.17,6.24,8.45,6.24,4.99,0,9.31-2.3,11.04-7.01Z"/>
        </g>
        <path class="cls-2" d="M351.3,58.24h-24.4c7.46,0,13.52,6.05,13.52,13.52v49.39c0,4.83-2.58,9.3-6.76,11.71l-21.84,12.62c-2.09,1.2-4.43,1.8-6.76,1.8v-67.04c-.47,0-.92.01-1.38.03-9.38.31-18.46,4.85-24.42,12.08-.76.91-1.46,1.87-2.12,2.85-7.45,10.91-7.45,26.22,0,37.13.65,1,1.37,1.94,2.12,2.85,2.31,2.78,5.05,5.18,8.14,7.08,4.87,3.03,10.55,4.78,16.28,4.99.46.02.91.03,1.38.03v68.55h0c-21.81-.05-40.61-12.98-49.17-31.6,7.81-16.99,24.15-29.25,43.53-31.3-17.88,1.15-34.31,7.67-47.67,17.97-8.46,6.49-15.7,14.48-21.31,23.6,6.51,4.06,13.38,7.59,20.54,10.57,16.67,6.91,34.94,10.74,54.08,10.77h0v30.89c4.94,0,9.87-1.27,14.31-3.82l46.24-26.71c7.88-4.55,13.08-12.55,14.12-21.48-6.48,4.01-13.31,7.52-20.45,10.46-16.08,6.63-33.64,10.38-52.05,10.64-.49,0-.98,0-1.47,0,21.66-.2,40.31-13.08,48.82-31.6-7.77-16.9-23.98-29.12-43.22-31.26,3.22.23,6.39.62,9.51,1.19,12.64,2.29,24.74,7.44,35.18,14.91.83.59,1.65,1.2,2.46,1.83.03.02.07.05.1.08,8.4,6.47,15.58,14.4,21.16,23.46v-.17c.12-.93.16-1.88.16-2.83v-104.57c0-15.81-12.81-28.62-28.62-28.62Z"/>
      </g>
    </g>
  </g>
</svg>