<?xml version="1.0" encoding="UTF-8"?>
<svg id="Layer_2" data-name="Layer 2" xmlns="http://www.w3.org/2000/svg" viewBox="0 0 149.48 188.49">
  <defs>
    <style>
      .cls-1 {
        fill: #fff;
        stroke-width: 0px;
      }
    </style>
  </defs>
  <g id="Layer_1-2" data-name="Layer 1">
    <path class="cls-1" d="M120.86,0h-24.4c7.46,0,13.52,6.05,13.52,13.52v49.39c0,4.83-2.58,9.3-6.76,11.71l-21.84,12.62c-2.09,1.2-4.43,1.8-6.76,1.8V21.99c-.47,0-.92.01-1.38.03-9.38.31-18.46,4.85-24.42,12.08-.76.91-1.46,1.87-2.12,2.85-7.45,10.91-7.45,26.22,0,37.13.65,1,1.37,1.94,2.12,2.85,2.31,2.78,5.05,5.18,8.14,7.08,4.87,3.03,10.55,4.78,16.28,4.99.46.02.91.03,1.38.03v68.55h0c-21.81-.05-40.61-12.98-49.17-31.6,7.81-16.99,24.15-29.25,43.53-31.3-17.88,1.15-34.31,7.67-47.67,17.97-8.46,6.49-15.7,14.48-21.31,23.6,6.51,4.06,13.38,7.59,20.54,10.57,16.67,6.91,34.94,10.74,54.08,10.77h0v30.89c4.94,0,9.87-1.27,14.31-3.82l46.24-26.71c7.88-4.55,13.08-12.55,14.12-21.48-6.48,4.01-13.31,7.52-20.45,10.46-16.08,6.63-33.64,10.38-52.05,10.64-.49,0-.98,0-1.47,0,21.66-.2,40.31-13.08,48.82-31.6-7.77-16.9-23.98-29.12-43.22-31.26,3.22.23,6.39.62,9.51,1.19,12.64,2.29,24.74,7.44,35.18,14.91.83.59,1.65,1.2,2.46,1.83.03.02.07.05.1.08,8.4,6.47,15.58,14.4,21.16,23.46v-.17c.12-.93.16-1.88.16-2.83V28.62c0-15.81-12.81-28.62-28.62-28.62Z"/>
  </g>
</svg>