<?xml version="1.0" encoding="UTF-8"?>
<svg id="Layer_2" data-name="Layer 2" xmlns="http://www.w3.org/2000/svg" viewBox="0 0 892.79 116.5">
  <defs>
    <style>
      .cls-1 {
        fill: #000;
      }

      .cls-1, .cls-2 {
        stroke-width: 0px;
      }

      .cls-2 {
        fill: none;
      }
    </style>
  </defs>
  <g id="Layer_1-2" data-name="Layer 1">
    <g>
      <rect class="cls-2" width="892.79" height="116.5"/>
      <g>
        <path class="cls-1" d="M170.5,67.66c0-15.55,12-26.59,28.42-26.59s28.32,11.04,28.32,26.59-11.9,26.59-28.32,26.59-28.42-11.04-28.42-26.59ZM212.07,67.66c0-8.93-5.66-14.3-13.15-14.3s-13.25,5.38-13.25,14.3,5.76,14.3,13.25,14.3,13.15-5.38,13.15-14.3Z"/>
        <path class="cls-1" d="M291.72,67.66c0,16.22-11.23,26.59-25.73,26.59-6.91,0-12.48-2.21-16.22-6.72v5.95h-14.3V22.25h14.98v25.06c3.84-4.22,9.12-6.24,15.55-6.24,14.5,0,25.73,10.37,25.73,26.59ZM276.55,67.66c0-8.93-5.66-14.3-13.15-14.3s-13.15,5.38-13.15,14.3,5.66,14.3,13.15,14.3,13.15-5.38,13.15-14.3Z"/>
        <path class="cls-1" d="M295.54,88.68l4.99-10.75c4.61,2.98,11.62,4.99,17.95,4.99,6.91,0,9.5-1.82,9.5-4.7,0-8.45-31.2.19-31.2-20.45,0-9.79,8.83-16.7,23.9-16.7,7.1,0,14.98,1.63,19.87,4.51l-4.99,10.66c-5.09-2.88-10.18-3.84-14.88-3.84-6.72,0-9.6,2.11-9.6,4.8,0,8.83,31.2.29,31.2,20.64,0,9.6-8.93,16.42-24.38,16.42-8.74,0-17.57-2.4-22.37-5.57Z"/>
        <path class="cls-1" d="M346.42,67.66c0-15.55,12-26.59,28.8-26.59,10.85,0,19.39,4.7,23.14,13.15l-11.62,6.24c-2.78-4.9-6.91-7.1-11.62-7.1-7.58,0-13.54,5.28-13.54,14.3s5.95,14.3,13.54,14.3c4.7,0,8.83-2.11,11.62-7.1l11.62,6.34c-3.74,8.26-12.29,13.06-23.14,13.06-16.8,0-28.8-11.04-28.8-26.59Z"/>
        <path class="cls-1" d="M456.83,41.83v51.65h-14.21v-6.14c-3.94,4.51-9.7,6.91-16.03,6.91-12.96,0-22.08-7.3-22.08-23.23v-29.18h14.98v26.98c0,8.64,3.84,12.48,10.46,12.48s11.9-4.42,11.9-13.92v-25.54h14.98Z"/>
        <path class="cls-1" d="M512.82,93.48l-12.96-18.72h-14.3v18.72h-15.55V26.28h29.09c17.95,0,29.18,9.31,29.18,24.38,0,10.08-5.09,17.47-13.82,21.22l15.07,21.6h-16.7ZM498.23,38.95h-12.67v23.42h12.67c9.5,0,14.3-4.42,14.3-11.71s-4.8-11.71-14.3-11.71Z"/>
        <path class="cls-1" d="M582.19,93.48l-12.96-18.72h-14.3v18.72h-15.55V26.28h29.09c17.95,0,29.18,9.31,29.18,24.38,0,10.08-5.09,17.47-13.82,21.22l15.07,21.6h-16.7ZM567.6,38.95h-12.67v23.42h12.67c9.5,0,14.3-4.42,14.3-11.71s-4.8-11.71-14.3-11.71Z"/>
        <path class="cls-1" d="M651.56,93.48l-12.96-18.72h-14.3v18.72h-15.55V26.28h29.09c17.95,0,29.18,9.31,29.18,24.38,0,10.08-5.09,17.47-13.82,21.22l15.07,21.6h-16.7ZM636.97,38.95h-12.67v23.42h12.67c9.5,0,14.3-4.42,14.3-11.71s-4.8-11.71-14.3-11.71Z"/>
        <path class="cls-1" d="M722.29,64.01v29.47h-14.02v-6.43c-2.78,4.7-8.16,7.2-15.74,7.2-12.1,0-19.3-6.72-19.3-15.65s6.43-15.46,22.18-15.46h11.9c0-6.43-3.84-10.18-11.9-10.18-5.47,0-11.14,1.82-14.88,4.8l-5.38-10.46c5.66-4.03,14.02-6.24,22.27-6.24,15.74,0,24.86,7.3,24.86,22.94ZM707.32,77.16v-5.28h-10.27c-7.01,0-9.22,2.59-9.22,6.05,0,3.74,3.17,6.24,8.45,6.24,4.99,0,9.31-2.3,11.04-7.01Z"/>
      </g>
    </g>
  </g>
</svg>